# xmcd CD database file
#
# Track frame offsets:
#	150
#	20373
#	38413
#	58649
#	83451
#	100574
#	115058
#	131549
#	149859
#	174399
#	190650
#	209436
#	233235
#
# Disc length: 3431 seconds
#
# Revision: 0
# Processed by: cddbd v1.5.2PL0 Copyright (c) Steve Scherf et al.
# Submitted via: CDex 1.70beta2
#
DISCID=a30d650d
DTITLE=DON TOMASINO and Tutti Quanti - l'Assodicori
DYEAR=2009
DGENRE=Jazz
TTITLE0=Scirocco Siculo
TTITLE1=Non Bastera'Mai
TTITLE2=Tsunami
TTITLE3=Blue Side Ska
TTITLE4=Mammasan
TTITLE5=The Red Palace
TTITLE6=On T'avait Promis
TTITLE7=Earthquake
TTITLE8=Rides Noires
TTITLE9=La S'Kamora
TTITLE10=Guerrier Dans L'ame
TTITLE11=Rose
TTITLE12=Ti Saluta Il Mondo
EXTD=YEAR: 2009
EXTT0=
EXTT1=
EXTT2=
EXTT3=
EXTT4=
EXTT5=
EXTT6=
EXTT7=
EXTT8=
EXTT9=
EXTT10=
EXTT11=
EXTT12=
PLAYORDER=
